%TF.GenerationSoftware,KiCad,Pcbnew,(5.1.12)-1*%
%TF.CreationDate,2023-08-17T10:50:11+05:30*%
%TF.ProjectId,low battery inductor,6c6f7720-6261-4747-9465-727920696e64,rev?*%
%TF.SameCoordinates,Original*%
%TF.FileFunction,Copper,L2,Bot*%
%TF.FilePolarity,Positive*%
%FSLAX46Y46*%
G04 Gerber Fmt 4.6, Leading zero omitted, Abs format (unit mm)*
G04 Created by KiCad (PCBNEW (5.1.12)-1) date 2023-08-17 10:50:11*
%MOMM*%
%LPD*%
G01*
G04 APERTURE LIST*
%TA.AperFunction,ComponentPad*%
%ADD10O,1.700000X1.700000*%
%TD*%
%TA.AperFunction,ComponentPad*%
%ADD11R,1.700000X1.700000*%
%TD*%
%TA.AperFunction,ComponentPad*%
%ADD12O,1.400000X1.400000*%
%TD*%
%TA.AperFunction,ComponentPad*%
%ADD13C,1.400000*%
%TD*%
%TA.AperFunction,ComponentPad*%
%ADD14R,1.050000X1.500000*%
%TD*%
%TA.AperFunction,ComponentPad*%
%ADD15O,1.050000X1.500000*%
%TD*%
%TA.AperFunction,ComponentPad*%
%ADD16C,1.800000*%
%TD*%
%TA.AperFunction,ComponentPad*%
%ADD17R,1.800000X1.800000*%
%TD*%
%TA.AperFunction,ComponentPad*%
%ADD18O,1.600000X1.600000*%
%TD*%
%TA.AperFunction,ComponentPad*%
%ADD19R,1.600000X1.600000*%
%TD*%
%TA.AperFunction,ViaPad*%
%ADD20C,3.500000*%
%TD*%
%TA.AperFunction,Conductor*%
%ADD21C,0.250000*%
%TD*%
%TA.AperFunction,Conductor*%
%ADD22C,0.254000*%
%TD*%
%TA.AperFunction,Conductor*%
%ADD23C,0.100000*%
%TD*%
G04 APERTURE END LIST*
D10*
%TO.P,v1-12v1,2*%
%TO.N,Earth*%
X144825001Y-81665001D03*
D11*
%TO.P,v1-12v1,1*%
%TO.N,Net-(R1-Pad1)*%
X144825001Y-79125001D03*
%TD*%
D12*
%TO.P,R3,2*%
%TO.N,Net-(D2-Pad2)*%
X159080000Y-72000000D03*
D13*
%TO.P,R3,1*%
%TO.N,Net-(R1-Pad1)*%
X154000000Y-72000000D03*
%TD*%
D12*
%TO.P,R2,2*%
%TO.N,Net-(Q2-Pad2)*%
X151450000Y-75225001D03*
D13*
%TO.P,R2,1*%
%TO.N,Net-(Q1-Pad1)*%
X146370000Y-75225001D03*
%TD*%
D12*
%TO.P,R1,2*%
%TO.N,Net-(Q1-Pad3)*%
X145920000Y-72000000D03*
D13*
%TO.P,R1,1*%
%TO.N,Net-(R1-Pad1)*%
X151000000Y-72000000D03*
%TD*%
D14*
%TO.P,Q2,1*%
%TO.N,Net-(D2-Pad2)*%
X155000000Y-77000000D03*
D15*
%TO.P,Q2,3*%
%TO.N,Earth*%
X157540000Y-77000000D03*
%TO.P,Q2,2*%
%TO.N,Net-(Q2-Pad2)*%
X156270000Y-77000000D03*
%TD*%
D14*
%TO.P,Q1,1*%
%TO.N,Net-(Q1-Pad1)*%
X149000000Y-80000000D03*
D15*
%TO.P,Q1,3*%
%TO.N,Net-(Q1-Pad3)*%
X151540000Y-80000000D03*
%TO.P,Q1,2*%
%TO.N,Net-(D1-Pad1)*%
X150270000Y-80000000D03*
%TD*%
D16*
%TO.P,D2,2*%
%TO.N,Net-(D2-Pad2)*%
X155460000Y-83000000D03*
D17*
%TO.P,D2,1*%
%TO.N,Earth*%
X158000000Y-83000000D03*
%TD*%
D18*
%TO.P,D1,2*%
%TO.N,Earth*%
X152000000Y-84325000D03*
D19*
%TO.P,D1,1*%
%TO.N,Net-(D1-Pad1)*%
X149460000Y-84325000D03*
%TD*%
D20*
%TO.N,*%
X141000000Y-70000000D03*
X162000000Y-70000000D03*
X141000000Y-87000000D03*
X162000000Y-87000000D03*
%TD*%
D21*
%TO.N,Net-(D1-Pad1)*%
X149460000Y-84325000D02*
X149895000Y-84325000D01*
X149895000Y-84325000D02*
X151710000Y-82510000D01*
X151710000Y-82510000D02*
X153190000Y-82510000D01*
X153190000Y-82510000D02*
X153510000Y-82190000D01*
X153510000Y-82190000D02*
X153510000Y-79260000D01*
X153510000Y-79260000D02*
X152420000Y-78170000D01*
X152420000Y-78170000D02*
X150920000Y-78170000D01*
X150270000Y-78820000D02*
X150270000Y-80000000D01*
X150920000Y-78170000D02*
X150270000Y-78820000D01*
%TO.N,Net-(D2-Pad2)*%
X158080000Y-73000000D02*
X159080000Y-72000000D01*
X156000000Y-73000000D02*
X158080000Y-73000000D01*
X155000000Y-74000000D02*
X156000000Y-73000000D01*
X155000000Y-77000000D02*
X155000000Y-74000000D01*
X155460000Y-83000000D02*
X155460000Y-86460000D01*
X155460000Y-86460000D02*
X156000000Y-87000000D01*
X156000000Y-87000000D02*
X158000000Y-87000000D01*
X158000000Y-87000000D02*
X161000000Y-84000000D01*
X161000000Y-84000000D02*
X161000000Y-76000000D01*
X159000000Y-74000000D02*
X155000000Y-74000000D01*
X161000000Y-76000000D02*
X159000000Y-74000000D01*
%TO.N,Net-(Q1-Pad1)*%
X146370000Y-75225001D02*
X146370000Y-76010000D01*
X146370000Y-76010000D02*
X147160000Y-76800000D01*
X147160000Y-76800000D02*
X148830000Y-76800000D01*
X149000000Y-76970000D02*
X149000000Y-80000000D01*
X148830000Y-76800000D02*
X149000000Y-76970000D01*
%TO.N,Net-(Q1-Pad3)*%
X145920000Y-70390000D02*
X145920000Y-72000000D01*
X145700000Y-70170000D02*
X145920000Y-70390000D01*
X144800000Y-70170000D02*
X145700000Y-70170000D01*
X143920000Y-71050000D02*
X144800000Y-70170000D01*
X143920000Y-75930000D02*
X143920000Y-71050000D01*
X144930000Y-76940000D02*
X143920000Y-75930000D01*
X146663590Y-76940000D02*
X144930000Y-76940000D01*
X147220000Y-77496410D02*
X146663590Y-76940000D01*
X147220000Y-81970000D02*
X147220000Y-77496410D01*
X147700000Y-82450000D02*
X147220000Y-81970000D01*
X150210000Y-82450000D02*
X147700000Y-82450000D01*
X151540000Y-81120000D02*
X150210000Y-82450000D01*
X151540000Y-80000000D02*
X151540000Y-81120000D01*
%TO.N,Net-(Q2-Pad2)*%
X156270000Y-76409998D02*
X156270000Y-77000000D01*
X157000000Y-79000000D02*
X156270000Y-78270000D01*
X156000000Y-80000000D02*
X157000000Y-79000000D01*
X155000000Y-80000000D02*
X156000000Y-80000000D01*
X156270000Y-78270000D02*
X156270000Y-77000000D01*
X151450000Y-76450000D02*
X155000000Y-80000000D01*
X151450000Y-75225001D02*
X151450000Y-76450000D01*
%TO.N,Net-(R1-Pad1)*%
X151000000Y-72000000D02*
X151000000Y-70140000D01*
X151000000Y-70140000D02*
X149980000Y-69120000D01*
X149980000Y-69120000D02*
X144740000Y-69120000D01*
X144740000Y-69120000D02*
X143370000Y-70490000D01*
X143370000Y-77670000D02*
X144825001Y-79125001D01*
X143370000Y-70490000D02*
X143370000Y-77670000D01*
X151000000Y-72000000D02*
X154000000Y-72000000D01*
%TD*%
D22*
%TO.N,Earth*%
X142610001Y-77632668D02*
X142606324Y-77670000D01*
X142610001Y-77707333D01*
X142615551Y-77763677D01*
X142620998Y-77818985D01*
X142664454Y-77962246D01*
X142735026Y-78094276D01*
X142781184Y-78150519D01*
X142830000Y-78210001D01*
X142858998Y-78233799D01*
X143336929Y-78711730D01*
X143336929Y-79975001D01*
X143349189Y-80099483D01*
X143385499Y-80219181D01*
X143444464Y-80329495D01*
X143523816Y-80426186D01*
X143620507Y-80505538D01*
X143730821Y-80564503D01*
X143811467Y-80588967D01*
X143727413Y-80664732D01*
X143553360Y-80898081D01*
X143428176Y-81160902D01*
X143383525Y-81308111D01*
X143504846Y-81538001D01*
X144698001Y-81538001D01*
X144698001Y-81518001D01*
X144952001Y-81518001D01*
X144952001Y-81538001D01*
X146145156Y-81538001D01*
X146266477Y-81308111D01*
X146221826Y-81160902D01*
X146096642Y-80898081D01*
X145922589Y-80664732D01*
X145838535Y-80588967D01*
X145919181Y-80564503D01*
X146029495Y-80505538D01*
X146126186Y-80426186D01*
X146205538Y-80329495D01*
X146264503Y-80219181D01*
X146300813Y-80099483D01*
X146313073Y-79975001D01*
X146313073Y-78275001D01*
X146300813Y-78150519D01*
X146264503Y-78030821D01*
X146205538Y-77920507D01*
X146126186Y-77823816D01*
X146029495Y-77744464D01*
X145946310Y-77700000D01*
X146348789Y-77700000D01*
X146460001Y-77811213D01*
X146460000Y-81932677D01*
X146456324Y-81970000D01*
X146460000Y-82007322D01*
X146460000Y-82007332D01*
X146470997Y-82118985D01*
X146514454Y-82262246D01*
X146585026Y-82394276D01*
X146615921Y-82431921D01*
X146679999Y-82510001D01*
X146709003Y-82533804D01*
X147136196Y-82960997D01*
X147159999Y-82990001D01*
X147262107Y-83073799D01*
X147275724Y-83084974D01*
X147407753Y-83155546D01*
X147551014Y-83199003D01*
X147700000Y-83213677D01*
X147737333Y-83210000D01*
X148108353Y-83210000D01*
X148070498Y-83280820D01*
X148034188Y-83400518D01*
X148021928Y-83525000D01*
X148021928Y-85125000D01*
X148034188Y-85249482D01*
X148070498Y-85369180D01*
X148129463Y-85479494D01*
X148208815Y-85576185D01*
X148305506Y-85655537D01*
X148415820Y-85714502D01*
X148535518Y-85750812D01*
X148660000Y-85763072D01*
X150260000Y-85763072D01*
X150384482Y-85750812D01*
X150504180Y-85714502D01*
X150614494Y-85655537D01*
X150711185Y-85576185D01*
X150790537Y-85479494D01*
X150849502Y-85369180D01*
X150885812Y-85249482D01*
X150888370Y-85223509D01*
X150936481Y-85288414D01*
X151144869Y-85477385D01*
X151386119Y-85622070D01*
X151650960Y-85716909D01*
X151873000Y-85595624D01*
X151873000Y-84452000D01*
X152127000Y-84452000D01*
X152127000Y-85595624D01*
X152349040Y-85716909D01*
X152613881Y-85622070D01*
X152855131Y-85477385D01*
X153063519Y-85288414D01*
X153231037Y-85062420D01*
X153351246Y-84808087D01*
X153391904Y-84674039D01*
X153269915Y-84452000D01*
X152127000Y-84452000D01*
X151873000Y-84452000D01*
X151853000Y-84452000D01*
X151853000Y-84198000D01*
X151873000Y-84198000D01*
X151873000Y-84178000D01*
X152127000Y-84178000D01*
X152127000Y-84198000D01*
X153269915Y-84198000D01*
X153391904Y-83975961D01*
X153351246Y-83841913D01*
X153231037Y-83587580D01*
X153063519Y-83361586D01*
X152962522Y-83270000D01*
X153152678Y-83270000D01*
X153190000Y-83273676D01*
X153227322Y-83270000D01*
X153227333Y-83270000D01*
X153338986Y-83259003D01*
X153482247Y-83215546D01*
X153614276Y-83144974D01*
X153730001Y-83050001D01*
X153753804Y-83020997D01*
X153925000Y-82849801D01*
X153925000Y-83151184D01*
X153983989Y-83447743D01*
X154099701Y-83727095D01*
X154267688Y-83978505D01*
X154481495Y-84192312D01*
X154732905Y-84360299D01*
X155012257Y-84476011D01*
X155308816Y-84535000D01*
X155611184Y-84535000D01*
X155907743Y-84476011D01*
X156187095Y-84360299D01*
X156438505Y-84192312D01*
X156504944Y-84125873D01*
X156510498Y-84144180D01*
X156569463Y-84254494D01*
X156648815Y-84351185D01*
X156745506Y-84430537D01*
X156855820Y-84489502D01*
X156975518Y-84525812D01*
X157100000Y-84538072D01*
X157714250Y-84535000D01*
X157873000Y-84376250D01*
X157873000Y-83127000D01*
X158127000Y-83127000D01*
X158127000Y-84376250D01*
X158285750Y-84535000D01*
X158900000Y-84538072D01*
X159024482Y-84525812D01*
X159144180Y-84489502D01*
X159254494Y-84430537D01*
X159351185Y-84351185D01*
X159430537Y-84254494D01*
X159489502Y-84144180D01*
X159525812Y-84024482D01*
X159538072Y-83900000D01*
X159535000Y-83285750D01*
X159376250Y-83127000D01*
X158127000Y-83127000D01*
X157873000Y-83127000D01*
X157853000Y-83127000D01*
X157853000Y-82873000D01*
X157873000Y-82873000D01*
X157873000Y-81623750D01*
X158127000Y-81623750D01*
X158127000Y-82873000D01*
X159376250Y-82873000D01*
X159535000Y-82714250D01*
X159538072Y-82100000D01*
X159525812Y-81975518D01*
X159489502Y-81855820D01*
X159430537Y-81745506D01*
X159351185Y-81648815D01*
X159254494Y-81569463D01*
X159144180Y-81510498D01*
X159024482Y-81474188D01*
X158900000Y-81461928D01*
X158285750Y-81465000D01*
X158127000Y-81623750D01*
X157873000Y-81623750D01*
X157714250Y-81465000D01*
X157100000Y-81461928D01*
X156975518Y-81474188D01*
X156855820Y-81510498D01*
X156745506Y-81569463D01*
X156648815Y-81648815D01*
X156569463Y-81745506D01*
X156510498Y-81855820D01*
X156504944Y-81874127D01*
X156438505Y-81807688D01*
X156220000Y-81661687D01*
X156220000Y-80864801D01*
X156784802Y-80300000D01*
X159202678Y-80300000D01*
X159240000Y-80303676D01*
X159277322Y-80300000D01*
X159277333Y-80300000D01*
X159388986Y-80289003D01*
X159532247Y-80245546D01*
X159664276Y-80174974D01*
X159780001Y-80080001D01*
X159803803Y-80050998D01*
X160481004Y-79373798D01*
X160510001Y-79350001D01*
X160583863Y-79260000D01*
X160604974Y-79234277D01*
X160675546Y-79102247D01*
X160697765Y-79028998D01*
X160719003Y-78958986D01*
X160730000Y-78847333D01*
X160730000Y-78847323D01*
X160733676Y-78810000D01*
X160730000Y-78772677D01*
X160730000Y-73127325D01*
X160733676Y-73090000D01*
X160730000Y-73052675D01*
X160730000Y-73052667D01*
X160719003Y-72941014D01*
X160675546Y-72797753D01*
X160604974Y-72665724D01*
X160510001Y-72549999D01*
X160481003Y-72526201D01*
X160357988Y-72403186D01*
X160363696Y-72389405D01*
X160415000Y-72131486D01*
X160415000Y-71868514D01*
X160394983Y-71767882D01*
X160479651Y-71852550D01*
X160870279Y-72113560D01*
X161304321Y-72293346D01*
X161765098Y-72385000D01*
X162234902Y-72385000D01*
X162695679Y-72293346D01*
X163129721Y-72113560D01*
X163340000Y-71973056D01*
X163340001Y-85026945D01*
X163129721Y-84886440D01*
X162695679Y-84706654D01*
X162234902Y-84615000D01*
X161765098Y-84615000D01*
X161304321Y-84706654D01*
X160870279Y-84886440D01*
X160479651Y-85147450D01*
X160147450Y-85479651D01*
X159886440Y-85870279D01*
X159706654Y-86304321D01*
X159615000Y-86765098D01*
X159615000Y-87234902D01*
X159706654Y-87695679D01*
X159886440Y-88129721D01*
X160026944Y-88340000D01*
X142973056Y-88340000D01*
X143113560Y-88129721D01*
X143293346Y-87695679D01*
X143385000Y-87234902D01*
X143385000Y-86765098D01*
X143293346Y-86304321D01*
X143113560Y-85870279D01*
X142852550Y-85479651D01*
X142520349Y-85147450D01*
X142129721Y-84886440D01*
X141695679Y-84706654D01*
X141234902Y-84615000D01*
X140765098Y-84615000D01*
X140304321Y-84706654D01*
X139870279Y-84886440D01*
X139660000Y-85026944D01*
X139660000Y-82021891D01*
X143383525Y-82021891D01*
X143428176Y-82169100D01*
X143553360Y-82431921D01*
X143727413Y-82665270D01*
X143943646Y-82860179D01*
X144193749Y-83009158D01*
X144468110Y-83106482D01*
X144698001Y-82985815D01*
X144698001Y-81792001D01*
X144952001Y-81792001D01*
X144952001Y-82985815D01*
X145181892Y-83106482D01*
X145456253Y-83009158D01*
X145706356Y-82860179D01*
X145922589Y-82665270D01*
X146096642Y-82431921D01*
X146221826Y-82169100D01*
X146266477Y-82021891D01*
X146145156Y-81792001D01*
X144952001Y-81792001D01*
X144698001Y-81792001D01*
X143504846Y-81792001D01*
X143383525Y-82021891D01*
X139660000Y-82021891D01*
X139660000Y-71973056D01*
X139870279Y-72113560D01*
X140304321Y-72293346D01*
X140765098Y-72385000D01*
X141234902Y-72385000D01*
X141695679Y-72293346D01*
X142129721Y-72113560D01*
X142520349Y-71852550D01*
X142610000Y-71762899D01*
X142610001Y-77632668D01*
%TA.AperFunction,Conductor*%
D23*
G36*
X142610001Y-77632668D02*
G01*
X142606324Y-77670000D01*
X142610001Y-77707333D01*
X142615551Y-77763677D01*
X142620998Y-77818985D01*
X142664454Y-77962246D01*
X142735026Y-78094276D01*
X142781184Y-78150519D01*
X142830000Y-78210001D01*
X142858998Y-78233799D01*
X143336929Y-78711730D01*
X143336929Y-79975001D01*
X143349189Y-80099483D01*
X143385499Y-80219181D01*
X143444464Y-80329495D01*
X143523816Y-80426186D01*
X143620507Y-80505538D01*
X143730821Y-80564503D01*
X143811467Y-80588967D01*
X143727413Y-80664732D01*
X143553360Y-80898081D01*
X143428176Y-81160902D01*
X143383525Y-81308111D01*
X143504846Y-81538001D01*
X144698001Y-81538001D01*
X144698001Y-81518001D01*
X144952001Y-81518001D01*
X144952001Y-81538001D01*
X146145156Y-81538001D01*
X146266477Y-81308111D01*
X146221826Y-81160902D01*
X146096642Y-80898081D01*
X145922589Y-80664732D01*
X145838535Y-80588967D01*
X145919181Y-80564503D01*
X146029495Y-80505538D01*
X146126186Y-80426186D01*
X146205538Y-80329495D01*
X146264503Y-80219181D01*
X146300813Y-80099483D01*
X146313073Y-79975001D01*
X146313073Y-78275001D01*
X146300813Y-78150519D01*
X146264503Y-78030821D01*
X146205538Y-77920507D01*
X146126186Y-77823816D01*
X146029495Y-77744464D01*
X145946310Y-77700000D01*
X146348789Y-77700000D01*
X146460001Y-77811213D01*
X146460000Y-81932677D01*
X146456324Y-81970000D01*
X146460000Y-82007322D01*
X146460000Y-82007332D01*
X146470997Y-82118985D01*
X146514454Y-82262246D01*
X146585026Y-82394276D01*
X146615921Y-82431921D01*
X146679999Y-82510001D01*
X146709003Y-82533804D01*
X147136196Y-82960997D01*
X147159999Y-82990001D01*
X147262107Y-83073799D01*
X147275724Y-83084974D01*
X147407753Y-83155546D01*
X147551014Y-83199003D01*
X147700000Y-83213677D01*
X147737333Y-83210000D01*
X148108353Y-83210000D01*
X148070498Y-83280820D01*
X148034188Y-83400518D01*
X148021928Y-83525000D01*
X148021928Y-85125000D01*
X148034188Y-85249482D01*
X148070498Y-85369180D01*
X148129463Y-85479494D01*
X148208815Y-85576185D01*
X148305506Y-85655537D01*
X148415820Y-85714502D01*
X148535518Y-85750812D01*
X148660000Y-85763072D01*
X150260000Y-85763072D01*
X150384482Y-85750812D01*
X150504180Y-85714502D01*
X150614494Y-85655537D01*
X150711185Y-85576185D01*
X150790537Y-85479494D01*
X150849502Y-85369180D01*
X150885812Y-85249482D01*
X150888370Y-85223509D01*
X150936481Y-85288414D01*
X151144869Y-85477385D01*
X151386119Y-85622070D01*
X151650960Y-85716909D01*
X151873000Y-85595624D01*
X151873000Y-84452000D01*
X152127000Y-84452000D01*
X152127000Y-85595624D01*
X152349040Y-85716909D01*
X152613881Y-85622070D01*
X152855131Y-85477385D01*
X153063519Y-85288414D01*
X153231037Y-85062420D01*
X153351246Y-84808087D01*
X153391904Y-84674039D01*
X153269915Y-84452000D01*
X152127000Y-84452000D01*
X151873000Y-84452000D01*
X151853000Y-84452000D01*
X151853000Y-84198000D01*
X151873000Y-84198000D01*
X151873000Y-84178000D01*
X152127000Y-84178000D01*
X152127000Y-84198000D01*
X153269915Y-84198000D01*
X153391904Y-83975961D01*
X153351246Y-83841913D01*
X153231037Y-83587580D01*
X153063519Y-83361586D01*
X152962522Y-83270000D01*
X153152678Y-83270000D01*
X153190000Y-83273676D01*
X153227322Y-83270000D01*
X153227333Y-83270000D01*
X153338986Y-83259003D01*
X153482247Y-83215546D01*
X153614276Y-83144974D01*
X153730001Y-83050001D01*
X153753804Y-83020997D01*
X153925000Y-82849801D01*
X153925000Y-83151184D01*
X153983989Y-83447743D01*
X154099701Y-83727095D01*
X154267688Y-83978505D01*
X154481495Y-84192312D01*
X154732905Y-84360299D01*
X155012257Y-84476011D01*
X155308816Y-84535000D01*
X155611184Y-84535000D01*
X155907743Y-84476011D01*
X156187095Y-84360299D01*
X156438505Y-84192312D01*
X156504944Y-84125873D01*
X156510498Y-84144180D01*
X156569463Y-84254494D01*
X156648815Y-84351185D01*
X156745506Y-84430537D01*
X156855820Y-84489502D01*
X156975518Y-84525812D01*
X157100000Y-84538072D01*
X157714250Y-84535000D01*
X157873000Y-84376250D01*
X157873000Y-83127000D01*
X158127000Y-83127000D01*
X158127000Y-84376250D01*
X158285750Y-84535000D01*
X158900000Y-84538072D01*
X159024482Y-84525812D01*
X159144180Y-84489502D01*
X159254494Y-84430537D01*
X159351185Y-84351185D01*
X159430537Y-84254494D01*
X159489502Y-84144180D01*
X159525812Y-84024482D01*
X159538072Y-83900000D01*
X159535000Y-83285750D01*
X159376250Y-83127000D01*
X158127000Y-83127000D01*
X157873000Y-83127000D01*
X157853000Y-83127000D01*
X157853000Y-82873000D01*
X157873000Y-82873000D01*
X157873000Y-81623750D01*
X158127000Y-81623750D01*
X158127000Y-82873000D01*
X159376250Y-82873000D01*
X159535000Y-82714250D01*
X159538072Y-82100000D01*
X159525812Y-81975518D01*
X159489502Y-81855820D01*
X159430537Y-81745506D01*
X159351185Y-81648815D01*
X159254494Y-81569463D01*
X159144180Y-81510498D01*
X159024482Y-81474188D01*
X158900000Y-81461928D01*
X158285750Y-81465000D01*
X158127000Y-81623750D01*
X157873000Y-81623750D01*
X157714250Y-81465000D01*
X157100000Y-81461928D01*
X156975518Y-81474188D01*
X156855820Y-81510498D01*
X156745506Y-81569463D01*
X156648815Y-81648815D01*
X156569463Y-81745506D01*
X156510498Y-81855820D01*
X156504944Y-81874127D01*
X156438505Y-81807688D01*
X156220000Y-81661687D01*
X156220000Y-80864801D01*
X156784802Y-80300000D01*
X159202678Y-80300000D01*
X159240000Y-80303676D01*
X159277322Y-80300000D01*
X159277333Y-80300000D01*
X159388986Y-80289003D01*
X159532247Y-80245546D01*
X159664276Y-80174974D01*
X159780001Y-80080001D01*
X159803803Y-80050998D01*
X160481004Y-79373798D01*
X160510001Y-79350001D01*
X160583863Y-79260000D01*
X160604974Y-79234277D01*
X160675546Y-79102247D01*
X160697765Y-79028998D01*
X160719003Y-78958986D01*
X160730000Y-78847333D01*
X160730000Y-78847323D01*
X160733676Y-78810000D01*
X160730000Y-78772677D01*
X160730000Y-73127325D01*
X160733676Y-73090000D01*
X160730000Y-73052675D01*
X160730000Y-73052667D01*
X160719003Y-72941014D01*
X160675546Y-72797753D01*
X160604974Y-72665724D01*
X160510001Y-72549999D01*
X160481003Y-72526201D01*
X160357988Y-72403186D01*
X160363696Y-72389405D01*
X160415000Y-72131486D01*
X160415000Y-71868514D01*
X160394983Y-71767882D01*
X160479651Y-71852550D01*
X160870279Y-72113560D01*
X161304321Y-72293346D01*
X161765098Y-72385000D01*
X162234902Y-72385000D01*
X162695679Y-72293346D01*
X163129721Y-72113560D01*
X163340000Y-71973056D01*
X163340001Y-85026945D01*
X163129721Y-84886440D01*
X162695679Y-84706654D01*
X162234902Y-84615000D01*
X161765098Y-84615000D01*
X161304321Y-84706654D01*
X160870279Y-84886440D01*
X160479651Y-85147450D01*
X160147450Y-85479651D01*
X159886440Y-85870279D01*
X159706654Y-86304321D01*
X159615000Y-86765098D01*
X159615000Y-87234902D01*
X159706654Y-87695679D01*
X159886440Y-88129721D01*
X160026944Y-88340000D01*
X142973056Y-88340000D01*
X143113560Y-88129721D01*
X143293346Y-87695679D01*
X143385000Y-87234902D01*
X143385000Y-86765098D01*
X143293346Y-86304321D01*
X143113560Y-85870279D01*
X142852550Y-85479651D01*
X142520349Y-85147450D01*
X142129721Y-84886440D01*
X141695679Y-84706654D01*
X141234902Y-84615000D01*
X140765098Y-84615000D01*
X140304321Y-84706654D01*
X139870279Y-84886440D01*
X139660000Y-85026944D01*
X139660000Y-82021891D01*
X143383525Y-82021891D01*
X143428176Y-82169100D01*
X143553360Y-82431921D01*
X143727413Y-82665270D01*
X143943646Y-82860179D01*
X144193749Y-83009158D01*
X144468110Y-83106482D01*
X144698001Y-82985815D01*
X144698001Y-81792001D01*
X144952001Y-81792001D01*
X144952001Y-82985815D01*
X145181892Y-83106482D01*
X145456253Y-83009158D01*
X145706356Y-82860179D01*
X145922589Y-82665270D01*
X146096642Y-82431921D01*
X146221826Y-82169100D01*
X146266477Y-82021891D01*
X146145156Y-81792001D01*
X144952001Y-81792001D01*
X144698001Y-81792001D01*
X143504846Y-81792001D01*
X143383525Y-82021891D01*
X139660000Y-82021891D01*
X139660000Y-71973056D01*
X139870279Y-72113560D01*
X140304321Y-72293346D01*
X140765098Y-72385000D01*
X141234902Y-72385000D01*
X141695679Y-72293346D01*
X142129721Y-72113560D01*
X142520349Y-71852550D01*
X142610000Y-71762899D01*
X142610001Y-77632668D01*
G37*
%TD.AperFunction*%
D22*
X159886440Y-68870279D02*
X159706654Y-69304321D01*
X159615000Y-69765098D01*
X159615000Y-70234902D01*
X159706654Y-70695679D01*
X159773919Y-70858072D01*
X159712359Y-70816939D01*
X159469405Y-70716304D01*
X159211486Y-70665000D01*
X158948514Y-70665000D01*
X158690595Y-70716304D01*
X158447641Y-70816939D01*
X158228987Y-70963038D01*
X158043038Y-71148987D01*
X157982225Y-71240000D01*
X157042667Y-71240000D01*
X156931014Y-71250997D01*
X156787753Y-71294454D01*
X156655724Y-71365026D01*
X156539999Y-71459999D01*
X156445026Y-71575724D01*
X156374454Y-71707753D01*
X156330997Y-71851014D01*
X156316323Y-72000000D01*
X156330997Y-72148986D01*
X156374454Y-72292247D01*
X156445026Y-72424276D01*
X156539999Y-72540001D01*
X156655724Y-72634974D01*
X156787753Y-72705546D01*
X156931014Y-72749003D01*
X157042667Y-72760000D01*
X157982225Y-72760000D01*
X158043038Y-72851013D01*
X158228987Y-73036962D01*
X158447641Y-73183061D01*
X158690595Y-73283696D01*
X158948514Y-73335000D01*
X159140198Y-73335000D01*
X159210001Y-73404803D01*
X159210000Y-78495198D01*
X158925199Y-78780000D01*
X156784802Y-78780000D01*
X156384169Y-78379367D01*
X156497400Y-78368215D01*
X156716060Y-78301885D01*
X156904669Y-78201071D01*
X156963118Y-78242275D01*
X157172663Y-78335272D01*
X157234190Y-78343964D01*
X157413000Y-78218163D01*
X157413000Y-77453108D01*
X157413215Y-77452399D01*
X157430000Y-77281978D01*
X157430000Y-77127000D01*
X157667000Y-77127000D01*
X157667000Y-78218163D01*
X157845810Y-78343964D01*
X157907337Y-78335272D01*
X158116882Y-78242275D01*
X158304258Y-78110184D01*
X158462264Y-77944076D01*
X158584828Y-77750334D01*
X158667239Y-77536404D01*
X158706331Y-77310507D01*
X158546598Y-77127000D01*
X157667000Y-77127000D01*
X157430000Y-77127000D01*
X157430000Y-76718021D01*
X157413215Y-76547600D01*
X157413000Y-76546891D01*
X157413000Y-75781837D01*
X157667000Y-75781837D01*
X157667000Y-76873000D01*
X158546598Y-76873000D01*
X158706331Y-76689493D01*
X158667239Y-76463596D01*
X158584828Y-76249666D01*
X158462264Y-76055924D01*
X158304258Y-75889816D01*
X158116882Y-75757725D01*
X157907337Y-75664728D01*
X157845810Y-75656036D01*
X157667000Y-75781837D01*
X157413000Y-75781837D01*
X157234190Y-75656036D01*
X157172663Y-75664728D01*
X156963118Y-75757725D01*
X156904669Y-75798929D01*
X156716059Y-75698115D01*
X156596717Y-75661913D01*
X155648807Y-74714004D01*
X155625004Y-74685000D01*
X155509279Y-74590027D01*
X155377250Y-74519455D01*
X155233989Y-74475998D01*
X155122336Y-74465001D01*
X155122325Y-74465001D01*
X155085003Y-74461325D01*
X155047681Y-74465001D01*
X152547775Y-74465001D01*
X152486962Y-74373988D01*
X152301013Y-74188039D01*
X152082359Y-74041940D01*
X151839405Y-73941305D01*
X151581486Y-73890001D01*
X151318514Y-73890001D01*
X151060595Y-73941305D01*
X150817641Y-74041940D01*
X150598987Y-74188039D01*
X150413038Y-74373988D01*
X150266939Y-74592642D01*
X150166304Y-74835596D01*
X150115000Y-75093515D01*
X150115000Y-75356487D01*
X150166304Y-75614406D01*
X150266939Y-75857360D01*
X150413038Y-76076014D01*
X150598987Y-76261963D01*
X150817641Y-76408062D01*
X151060595Y-76508697D01*
X151318514Y-76560001D01*
X151581486Y-76560001D01*
X151839405Y-76508697D01*
X152082359Y-76408062D01*
X152301013Y-76261963D01*
X152486962Y-76076014D01*
X152547775Y-75985001D01*
X153896626Y-75985001D01*
X153885498Y-76005820D01*
X153849188Y-76125518D01*
X153836928Y-76250000D01*
X153836928Y-77750000D01*
X153849188Y-77874482D01*
X153885498Y-77994180D01*
X153944463Y-78104494D01*
X154023815Y-78201185D01*
X154120506Y-78280537D01*
X154230820Y-78339502D01*
X154293305Y-78358456D01*
X154294454Y-78362246D01*
X154365026Y-78494276D01*
X154436201Y-78581002D01*
X154460000Y-78610001D01*
X154488998Y-78633799D01*
X155395198Y-79540000D01*
X154948998Y-79986201D01*
X154920000Y-80009999D01*
X154896202Y-80038997D01*
X154896201Y-80038998D01*
X154825026Y-80125724D01*
X154754454Y-80257754D01*
X154710998Y-80401015D01*
X154696324Y-80550000D01*
X154700001Y-80587332D01*
X154700001Y-81661687D01*
X154481495Y-81807688D01*
X154270000Y-82019183D01*
X154270000Y-79297325D01*
X154273676Y-79260000D01*
X154270000Y-79222675D01*
X154270000Y-79222667D01*
X154259003Y-79111014D01*
X154215546Y-78967753D01*
X154144974Y-78835724D01*
X154050001Y-78719999D01*
X154021003Y-78696201D01*
X152983804Y-77659002D01*
X152960001Y-77629999D01*
X152844276Y-77535026D01*
X152712247Y-77464454D01*
X152568986Y-77420997D01*
X152457333Y-77410000D01*
X152457322Y-77410000D01*
X152420000Y-77406324D01*
X152382678Y-77410000D01*
X150957323Y-77410000D01*
X150920000Y-77406324D01*
X150882677Y-77410000D01*
X150882667Y-77410000D01*
X150771014Y-77420997D01*
X150627753Y-77464454D01*
X150495724Y-77535026D01*
X150379999Y-77629999D01*
X150356200Y-77658998D01*
X149760000Y-78255199D01*
X149760000Y-77007322D01*
X149763676Y-76969999D01*
X149760000Y-76932676D01*
X149760000Y-76932667D01*
X149749003Y-76821014D01*
X149705546Y-76677753D01*
X149634974Y-76545724D01*
X149540001Y-76429999D01*
X149510998Y-76406197D01*
X149393804Y-76289003D01*
X149370001Y-76259999D01*
X149254276Y-76165026D01*
X149122247Y-76094454D01*
X148978986Y-76050997D01*
X148867333Y-76040000D01*
X148867322Y-76040000D01*
X148830000Y-76036324D01*
X148792678Y-76040000D01*
X147474802Y-76040000D01*
X147448560Y-76013758D01*
X147553061Y-75857360D01*
X147653696Y-75614406D01*
X147705000Y-75356487D01*
X147705000Y-75093515D01*
X147653696Y-74835596D01*
X147553061Y-74592642D01*
X147406962Y-74373988D01*
X147221013Y-74188039D01*
X147002359Y-74041940D01*
X146759405Y-73941305D01*
X146501486Y-73890001D01*
X146238514Y-73890001D01*
X145980595Y-73941305D01*
X145737641Y-74041940D01*
X145518987Y-74188039D01*
X145333038Y-74373988D01*
X145186939Y-74592642D01*
X145086304Y-74835596D01*
X145035000Y-75093515D01*
X145035000Y-75356487D01*
X145086304Y-75614406D01*
X145186939Y-75857360D01*
X145333038Y-76076014D01*
X145437024Y-76180000D01*
X145244802Y-76180000D01*
X144680000Y-75615199D01*
X144680000Y-72494896D01*
X144736939Y-72632359D01*
X144883038Y-72851013D01*
X145068987Y-73036962D01*
X145287641Y-73183061D01*
X145530595Y-73283696D01*
X145788514Y-73335000D01*
X146051486Y-73335000D01*
X146309405Y-73283696D01*
X146552359Y-73183061D01*
X146771013Y-73036962D01*
X146956962Y-72851013D01*
X147103061Y-72632359D01*
X147203696Y-72389405D01*
X147255000Y-72131486D01*
X147255000Y-71868514D01*
X147203696Y-71610595D01*
X147103061Y-71367641D01*
X146956962Y-71148987D01*
X146771013Y-70963038D01*
X146680000Y-70902225D01*
X146680000Y-70427322D01*
X146683676Y-70390000D01*
X146680000Y-70352677D01*
X146680000Y-70352667D01*
X146669003Y-70241014D01*
X146625546Y-70097753D01*
X146554974Y-69965724D01*
X146484622Y-69880000D01*
X149665199Y-69880000D01*
X150240001Y-70454803D01*
X150240001Y-70902225D01*
X150148987Y-70963038D01*
X149963038Y-71148987D01*
X149816939Y-71367641D01*
X149716304Y-71610595D01*
X149665000Y-71868514D01*
X149665000Y-72131486D01*
X149716304Y-72389405D01*
X149816939Y-72632359D01*
X149963038Y-72851013D01*
X150148987Y-73036962D01*
X150367641Y-73183061D01*
X150610595Y-73283696D01*
X150868514Y-73335000D01*
X151131486Y-73335000D01*
X151389405Y-73283696D01*
X151632359Y-73183061D01*
X151851013Y-73036962D01*
X152036962Y-72851013D01*
X152097775Y-72760000D01*
X152902225Y-72760000D01*
X152963038Y-72851013D01*
X153148987Y-73036962D01*
X153367641Y-73183061D01*
X153610595Y-73283696D01*
X153868514Y-73335000D01*
X154131486Y-73335000D01*
X154389405Y-73283696D01*
X154632359Y-73183061D01*
X154851013Y-73036962D01*
X155036962Y-72851013D01*
X155183061Y-72632359D01*
X155283696Y-72389405D01*
X155335000Y-72131486D01*
X155335000Y-71868514D01*
X155283696Y-71610595D01*
X155183061Y-71367641D01*
X155036962Y-71148987D01*
X154851013Y-70963038D01*
X154632359Y-70816939D01*
X154389405Y-70716304D01*
X154131486Y-70665000D01*
X153868514Y-70665000D01*
X153610595Y-70716304D01*
X153367641Y-70816939D01*
X153148987Y-70963038D01*
X152963038Y-71148987D01*
X152902225Y-71240000D01*
X152097775Y-71240000D01*
X152036962Y-71148987D01*
X151851013Y-70963038D01*
X151760000Y-70902225D01*
X151760000Y-70177323D01*
X151763676Y-70140000D01*
X151760000Y-70102677D01*
X151760000Y-70102667D01*
X151749003Y-69991014D01*
X151705546Y-69847753D01*
X151634974Y-69715724D01*
X151540001Y-69599999D01*
X151511003Y-69576201D01*
X150594801Y-68660000D01*
X160026944Y-68660000D01*
X159886440Y-68870279D01*
%TA.AperFunction,Conductor*%
D23*
G36*
X159886440Y-68870279D02*
G01*
X159706654Y-69304321D01*
X159615000Y-69765098D01*
X159615000Y-70234902D01*
X159706654Y-70695679D01*
X159773919Y-70858072D01*
X159712359Y-70816939D01*
X159469405Y-70716304D01*
X159211486Y-70665000D01*
X158948514Y-70665000D01*
X158690595Y-70716304D01*
X158447641Y-70816939D01*
X158228987Y-70963038D01*
X158043038Y-71148987D01*
X157982225Y-71240000D01*
X157042667Y-71240000D01*
X156931014Y-71250997D01*
X156787753Y-71294454D01*
X156655724Y-71365026D01*
X156539999Y-71459999D01*
X156445026Y-71575724D01*
X156374454Y-71707753D01*
X156330997Y-71851014D01*
X156316323Y-72000000D01*
X156330997Y-72148986D01*
X156374454Y-72292247D01*
X156445026Y-72424276D01*
X156539999Y-72540001D01*
X156655724Y-72634974D01*
X156787753Y-72705546D01*
X156931014Y-72749003D01*
X157042667Y-72760000D01*
X157982225Y-72760000D01*
X158043038Y-72851013D01*
X158228987Y-73036962D01*
X158447641Y-73183061D01*
X158690595Y-73283696D01*
X158948514Y-73335000D01*
X159140198Y-73335000D01*
X159210001Y-73404803D01*
X159210000Y-78495198D01*
X158925199Y-78780000D01*
X156784802Y-78780000D01*
X156384169Y-78379367D01*
X156497400Y-78368215D01*
X156716060Y-78301885D01*
X156904669Y-78201071D01*
X156963118Y-78242275D01*
X157172663Y-78335272D01*
X157234190Y-78343964D01*
X157413000Y-78218163D01*
X157413000Y-77453108D01*
X157413215Y-77452399D01*
X157430000Y-77281978D01*
X157430000Y-77127000D01*
X157667000Y-77127000D01*
X157667000Y-78218163D01*
X157845810Y-78343964D01*
X157907337Y-78335272D01*
X158116882Y-78242275D01*
X158304258Y-78110184D01*
X158462264Y-77944076D01*
X158584828Y-77750334D01*
X158667239Y-77536404D01*
X158706331Y-77310507D01*
X158546598Y-77127000D01*
X157667000Y-77127000D01*
X157430000Y-77127000D01*
X157430000Y-76718021D01*
X157413215Y-76547600D01*
X157413000Y-76546891D01*
X157413000Y-75781837D01*
X157667000Y-75781837D01*
X157667000Y-76873000D01*
X158546598Y-76873000D01*
X158706331Y-76689493D01*
X158667239Y-76463596D01*
X158584828Y-76249666D01*
X158462264Y-76055924D01*
X158304258Y-75889816D01*
X158116882Y-75757725D01*
X157907337Y-75664728D01*
X157845810Y-75656036D01*
X157667000Y-75781837D01*
X157413000Y-75781837D01*
X157234190Y-75656036D01*
X157172663Y-75664728D01*
X156963118Y-75757725D01*
X156904669Y-75798929D01*
X156716059Y-75698115D01*
X156596717Y-75661913D01*
X155648807Y-74714004D01*
X155625004Y-74685000D01*
X155509279Y-74590027D01*
X155377250Y-74519455D01*
X155233989Y-74475998D01*
X155122336Y-74465001D01*
X155122325Y-74465001D01*
X155085003Y-74461325D01*
X155047681Y-74465001D01*
X152547775Y-74465001D01*
X152486962Y-74373988D01*
X152301013Y-74188039D01*
X152082359Y-74041940D01*
X151839405Y-73941305D01*
X151581486Y-73890001D01*
X151318514Y-73890001D01*
X151060595Y-73941305D01*
X150817641Y-74041940D01*
X150598987Y-74188039D01*
X150413038Y-74373988D01*
X150266939Y-74592642D01*
X150166304Y-74835596D01*
X150115000Y-75093515D01*
X150115000Y-75356487D01*
X150166304Y-75614406D01*
X150266939Y-75857360D01*
X150413038Y-76076014D01*
X150598987Y-76261963D01*
X150817641Y-76408062D01*
X151060595Y-76508697D01*
X151318514Y-76560001D01*
X151581486Y-76560001D01*
X151839405Y-76508697D01*
X152082359Y-76408062D01*
X152301013Y-76261963D01*
X152486962Y-76076014D01*
X152547775Y-75985001D01*
X153896626Y-75985001D01*
X153885498Y-76005820D01*
X153849188Y-76125518D01*
X153836928Y-76250000D01*
X153836928Y-77750000D01*
X153849188Y-77874482D01*
X153885498Y-77994180D01*
X153944463Y-78104494D01*
X154023815Y-78201185D01*
X154120506Y-78280537D01*
X154230820Y-78339502D01*
X154293305Y-78358456D01*
X154294454Y-78362246D01*
X154365026Y-78494276D01*
X154436201Y-78581002D01*
X154460000Y-78610001D01*
X154488998Y-78633799D01*
X155395198Y-79540000D01*
X154948998Y-79986201D01*
X154920000Y-80009999D01*
X154896202Y-80038997D01*
X154896201Y-80038998D01*
X154825026Y-80125724D01*
X154754454Y-80257754D01*
X154710998Y-80401015D01*
X154696324Y-80550000D01*
X154700001Y-80587332D01*
X154700001Y-81661687D01*
X154481495Y-81807688D01*
X154270000Y-82019183D01*
X154270000Y-79297325D01*
X154273676Y-79260000D01*
X154270000Y-79222675D01*
X154270000Y-79222667D01*
X154259003Y-79111014D01*
X154215546Y-78967753D01*
X154144974Y-78835724D01*
X154050001Y-78719999D01*
X154021003Y-78696201D01*
X152983804Y-77659002D01*
X152960001Y-77629999D01*
X152844276Y-77535026D01*
X152712247Y-77464454D01*
X152568986Y-77420997D01*
X152457333Y-77410000D01*
X152457322Y-77410000D01*
X152420000Y-77406324D01*
X152382678Y-77410000D01*
X150957323Y-77410000D01*
X150920000Y-77406324D01*
X150882677Y-77410000D01*
X150882667Y-77410000D01*
X150771014Y-77420997D01*
X150627753Y-77464454D01*
X150495724Y-77535026D01*
X150379999Y-77629999D01*
X150356200Y-77658998D01*
X149760000Y-78255199D01*
X149760000Y-77007322D01*
X149763676Y-76969999D01*
X149760000Y-76932676D01*
X149760000Y-76932667D01*
X149749003Y-76821014D01*
X149705546Y-76677753D01*
X149634974Y-76545724D01*
X149540001Y-76429999D01*
X149510998Y-76406197D01*
X149393804Y-76289003D01*
X149370001Y-76259999D01*
X149254276Y-76165026D01*
X149122247Y-76094454D01*
X148978986Y-76050997D01*
X148867333Y-76040000D01*
X148867322Y-76040000D01*
X148830000Y-76036324D01*
X148792678Y-76040000D01*
X147474802Y-76040000D01*
X147448560Y-76013758D01*
X147553061Y-75857360D01*
X147653696Y-75614406D01*
X147705000Y-75356487D01*
X147705000Y-75093515D01*
X147653696Y-74835596D01*
X147553061Y-74592642D01*
X147406962Y-74373988D01*
X147221013Y-74188039D01*
X147002359Y-74041940D01*
X146759405Y-73941305D01*
X146501486Y-73890001D01*
X146238514Y-73890001D01*
X145980595Y-73941305D01*
X145737641Y-74041940D01*
X145518987Y-74188039D01*
X145333038Y-74373988D01*
X145186939Y-74592642D01*
X145086304Y-74835596D01*
X145035000Y-75093515D01*
X145035000Y-75356487D01*
X145086304Y-75614406D01*
X145186939Y-75857360D01*
X145333038Y-76076014D01*
X145437024Y-76180000D01*
X145244802Y-76180000D01*
X144680000Y-75615199D01*
X144680000Y-72494896D01*
X144736939Y-72632359D01*
X144883038Y-72851013D01*
X145068987Y-73036962D01*
X145287641Y-73183061D01*
X145530595Y-73283696D01*
X145788514Y-73335000D01*
X146051486Y-73335000D01*
X146309405Y-73283696D01*
X146552359Y-73183061D01*
X146771013Y-73036962D01*
X146956962Y-72851013D01*
X147103061Y-72632359D01*
X147203696Y-72389405D01*
X147255000Y-72131486D01*
X147255000Y-71868514D01*
X147203696Y-71610595D01*
X147103061Y-71367641D01*
X146956962Y-71148987D01*
X146771013Y-70963038D01*
X146680000Y-70902225D01*
X146680000Y-70427322D01*
X146683676Y-70390000D01*
X146680000Y-70352677D01*
X146680000Y-70352667D01*
X146669003Y-70241014D01*
X146625546Y-70097753D01*
X146554974Y-69965724D01*
X146484622Y-69880000D01*
X149665199Y-69880000D01*
X150240001Y-70454803D01*
X150240001Y-70902225D01*
X150148987Y-70963038D01*
X149963038Y-71148987D01*
X149816939Y-71367641D01*
X149716304Y-71610595D01*
X149665000Y-71868514D01*
X149665000Y-72131486D01*
X149716304Y-72389405D01*
X149816939Y-72632359D01*
X149963038Y-72851013D01*
X150148987Y-73036962D01*
X150367641Y-73183061D01*
X150610595Y-73283696D01*
X150868514Y-73335000D01*
X151131486Y-73335000D01*
X151389405Y-73283696D01*
X151632359Y-73183061D01*
X151851013Y-73036962D01*
X152036962Y-72851013D01*
X152097775Y-72760000D01*
X152902225Y-72760000D01*
X152963038Y-72851013D01*
X153148987Y-73036962D01*
X153367641Y-73183061D01*
X153610595Y-73283696D01*
X153868514Y-73335000D01*
X154131486Y-73335000D01*
X154389405Y-73283696D01*
X154632359Y-73183061D01*
X154851013Y-73036962D01*
X155036962Y-72851013D01*
X155183061Y-72632359D01*
X155283696Y-72389405D01*
X155335000Y-72131486D01*
X155335000Y-71868514D01*
X155283696Y-71610595D01*
X155183061Y-71367641D01*
X155036962Y-71148987D01*
X154851013Y-70963038D01*
X154632359Y-70816939D01*
X154389405Y-70716304D01*
X154131486Y-70665000D01*
X153868514Y-70665000D01*
X153610595Y-70716304D01*
X153367641Y-70816939D01*
X153148987Y-70963038D01*
X152963038Y-71148987D01*
X152902225Y-71240000D01*
X152097775Y-71240000D01*
X152036962Y-71148987D01*
X151851013Y-70963038D01*
X151760000Y-70902225D01*
X151760000Y-70177323D01*
X151763676Y-70140000D01*
X151760000Y-70102677D01*
X151760000Y-70102667D01*
X151749003Y-69991014D01*
X151705546Y-69847753D01*
X151634974Y-69715724D01*
X151540001Y-69599999D01*
X151511003Y-69576201D01*
X150594801Y-68660000D01*
X160026944Y-68660000D01*
X159886440Y-68870279D01*
G37*
%TD.AperFunction*%
%TD*%
M02*
