M48
; DRILL file {KiCad (5.1.12)-1} date 08/17/23 10:50:16
; FORMAT={-:-/ absolute / inch / decimal}
; #@! TF.CreationDate,2023-08-17T10:50:16+05:30
; #@! TF.GenerationSoftware,Kicad,Pcbnew,(5.1.12)-1
; #@! TF.FileFunction,Plated,1,2,PTH
FMAT,2
INCH
T1C0.0276
T2C0.0295
T3C0.0315
T4C0.0354
T5C0.0394
T6C0.1339
%
G90
G05
T1
X5.7449Y-2.8346
X5.7626Y-2.9616
X5.9449Y-2.8346
X5.9626Y-2.9616
X6.063Y-2.8346
X6.263Y-2.8346
T2
X5.8661Y-3.1496
X5.9161Y-3.1496
X5.9661Y-3.1496
X6.1024Y-3.0315
X6.1524Y-3.0315
X6.2024Y-3.0315
T3
X5.8843Y-3.3199
X5.9843Y-3.3199
T4
X6.1205Y-3.2677
X6.2205Y-3.2677
T5
X5.7018Y-3.1152
X5.7018Y-3.2152
T6
X5.5512Y-2.7559
X5.5512Y-3.4252
X6.378Y-2.7559
X6.378Y-3.4252
T0
M30
