%TF.GenerationSoftware,KiCad,Pcbnew,(5.1.12)-1*%
%TF.CreationDate,2023-08-14T15:24:16+05:30*%
%TF.ProjectId,low battery,6c6f7720-6261-4747-9465-72792e6b6963,rev?*%
%TF.SameCoordinates,Original*%
%TF.FileFunction,Legend,Top*%
%TF.FilePolarity,Positive*%
%FSLAX46Y46*%
G04 Gerber Fmt 4.6, Leading zero omitted, Abs format (unit mm)*
G04 Created by KiCad (PCBNEW (5.1.12)-1) date 2023-08-14 15:24:16*
%MOMM*%
%LPD*%
G01*
G04 APERTURE LIST*
%ADD10C,0.120000*%
%ADD11C,0.150000*%
G04 APERTURE END LIST*
D10*
%TO.C,VR1*%
X121896000Y-94870000D02*
X116255000Y-94870000D01*
X121896000Y-85130000D02*
X116255000Y-85130000D01*
X121896000Y-94870000D02*
X121896000Y-85130000D01*
X116255000Y-94870000D02*
X116255000Y-85130000D01*
X116255000Y-93620000D02*
X111255000Y-93620000D01*
X116255000Y-86380000D02*
X111255000Y-86380000D01*
X116255000Y-93620000D02*
X116255000Y-86380000D01*
X111255000Y-93620000D02*
X111255000Y-86380000D01*
X111255000Y-92620000D02*
X104255000Y-92620000D01*
X111255000Y-87380000D02*
X104255000Y-87380000D01*
X111255000Y-92620000D02*
X111255000Y-87380000D01*
X104255000Y-92620000D02*
X104255000Y-87380000D01*
%TO.C,Red1*%
X128311130Y-85079837D02*
G75*
G02*
X126229039Y-85080000I-1041130J1079837D01*
G01*
X128311130Y-82920163D02*
G75*
G03*
X126229039Y-82920000I-1041130J-1079837D01*
G01*
X128942335Y-85078608D02*
G75*
G02*
X125710000Y-85235516I-1672335J1078608D01*
G01*
X128942335Y-82921392D02*
G75*
G03*
X125710000Y-82764484I-1672335J-1078608D01*
G01*
X125710000Y-82764000D02*
X125710000Y-82920000D01*
X125710000Y-85080000D02*
X125710000Y-85236000D01*
%TO.C,R2*%
X127920000Y-75620000D02*
X127920000Y-79460000D01*
X126080000Y-75620000D02*
X126080000Y-79460000D01*
%TO.C,R1*%
X111030000Y-76195000D02*
X107190000Y-76195000D01*
X111030000Y-74355000D02*
X107190000Y-74355000D01*
%TO.C,IC1*%
X113670000Y-77190000D02*
G75*
G02*
X113670000Y-79190000I0J-1000000D01*
G01*
X113670000Y-79190000D02*
X113670000Y-80440000D01*
X113670000Y-80440000D02*
X123950000Y-80440000D01*
X123950000Y-80440000D02*
X123950000Y-75940000D01*
X123950000Y-75940000D02*
X113670000Y-75940000D01*
X113670000Y-75940000D02*
X113670000Y-77190000D01*
%TO.C,D1*%
X112020000Y-80300000D02*
G75*
G03*
X112020000Y-80300000I-2770000J0D01*
G01*
X106480000Y-80300000D02*
X105770000Y-80300000D01*
%TO.C,6V1*%
X130670000Y-79270000D02*
X133330000Y-79270000D01*
X130670000Y-79270000D02*
X130670000Y-81870000D01*
X130670000Y-81870000D02*
X133330000Y-81870000D01*
X133330000Y-79270000D02*
X133330000Y-81870000D01*
X133330000Y-76670000D02*
X133330000Y-78000000D01*
X132000000Y-76670000D02*
X133330000Y-76670000D01*
%TO.C,VR1*%
D11*
X118515476Y-95452380D02*
X118848809Y-96452380D01*
X119182142Y-95452380D01*
X120086904Y-96452380D02*
X119753571Y-95976190D01*
X119515476Y-96452380D02*
X119515476Y-95452380D01*
X119896428Y-95452380D01*
X119991666Y-95500000D01*
X120039285Y-95547619D01*
X120086904Y-95642857D01*
X120086904Y-95785714D01*
X120039285Y-95880952D01*
X119991666Y-95928571D01*
X119896428Y-95976190D01*
X119515476Y-95976190D01*
X121039285Y-96452380D02*
X120467857Y-96452380D01*
X120753571Y-96452380D02*
X120753571Y-95452380D01*
X120658333Y-95595238D01*
X120563095Y-95690476D01*
X120467857Y-95738095D01*
%TO.C,Red1*%
X126222380Y-81492380D02*
X125889047Y-81016190D01*
X125650952Y-81492380D02*
X125650952Y-80492380D01*
X126031904Y-80492380D01*
X126127142Y-80540000D01*
X126174761Y-80587619D01*
X126222380Y-80682857D01*
X126222380Y-80825714D01*
X126174761Y-80920952D01*
X126127142Y-80968571D01*
X126031904Y-81016190D01*
X125650952Y-81016190D01*
X127031904Y-81444761D02*
X126936666Y-81492380D01*
X126746190Y-81492380D01*
X126650952Y-81444761D01*
X126603333Y-81349523D01*
X126603333Y-80968571D01*
X126650952Y-80873333D01*
X126746190Y-80825714D01*
X126936666Y-80825714D01*
X127031904Y-80873333D01*
X127079523Y-80968571D01*
X127079523Y-81063809D01*
X126603333Y-81159047D01*
X127936666Y-81492380D02*
X127936666Y-80492380D01*
X127936666Y-81444761D02*
X127841428Y-81492380D01*
X127650952Y-81492380D01*
X127555714Y-81444761D01*
X127508095Y-81397142D01*
X127460476Y-81301904D01*
X127460476Y-81016190D01*
X127508095Y-80920952D01*
X127555714Y-80873333D01*
X127650952Y-80825714D01*
X127841428Y-80825714D01*
X127936666Y-80873333D01*
X128936666Y-81492380D02*
X128365238Y-81492380D01*
X128650952Y-81492380D02*
X128650952Y-80492380D01*
X128555714Y-80635238D01*
X128460476Y-80730476D01*
X128365238Y-80778095D01*
%TO.C,R2*%
X126908333Y-73777380D02*
X126575000Y-73301190D01*
X126336904Y-73777380D02*
X126336904Y-72777380D01*
X126717857Y-72777380D01*
X126813095Y-72825000D01*
X126860714Y-72872619D01*
X126908333Y-72967857D01*
X126908333Y-73110714D01*
X126860714Y-73205952D01*
X126813095Y-73253571D01*
X126717857Y-73301190D01*
X126336904Y-73301190D01*
X127289285Y-72872619D02*
X127336904Y-72825000D01*
X127432142Y-72777380D01*
X127670238Y-72777380D01*
X127765476Y-72825000D01*
X127813095Y-72872619D01*
X127860714Y-72967857D01*
X127860714Y-73063095D01*
X127813095Y-73205952D01*
X127241666Y-73777380D01*
X127860714Y-73777380D01*
%TO.C,R1*%
X108943333Y-77647380D02*
X108610000Y-77171190D01*
X108371904Y-77647380D02*
X108371904Y-76647380D01*
X108752857Y-76647380D01*
X108848095Y-76695000D01*
X108895714Y-76742619D01*
X108943333Y-76837857D01*
X108943333Y-76980714D01*
X108895714Y-77075952D01*
X108848095Y-77123571D01*
X108752857Y-77171190D01*
X108371904Y-77171190D01*
X109895714Y-77647380D02*
X109324285Y-77647380D01*
X109610000Y-77647380D02*
X109610000Y-76647380D01*
X109514761Y-76790238D01*
X109419523Y-76885476D01*
X109324285Y-76933095D01*
%TO.C,IC1*%
X113122380Y-79166190D02*
X112122380Y-79166190D01*
X113027142Y-78118571D02*
X113074761Y-78166190D01*
X113122380Y-78309047D01*
X113122380Y-78404285D01*
X113074761Y-78547142D01*
X112979523Y-78642380D01*
X112884285Y-78690000D01*
X112693809Y-78737619D01*
X112550952Y-78737619D01*
X112360476Y-78690000D01*
X112265238Y-78642380D01*
X112170000Y-78547142D01*
X112122380Y-78404285D01*
X112122380Y-78309047D01*
X112170000Y-78166190D01*
X112217619Y-78118571D01*
X113122380Y-77166190D02*
X113122380Y-77737619D01*
X113122380Y-77451904D02*
X112122380Y-77451904D01*
X112265238Y-77547142D01*
X112360476Y-77642380D01*
X112408095Y-77737619D01*
%TO.C,D1*%
X105971904Y-84522380D02*
X105971904Y-83522380D01*
X106210000Y-83522380D01*
X106352857Y-83570000D01*
X106448095Y-83665238D01*
X106495714Y-83760476D01*
X106543333Y-83950952D01*
X106543333Y-84093809D01*
X106495714Y-84284285D01*
X106448095Y-84379523D01*
X106352857Y-84474761D01*
X106210000Y-84522380D01*
X105971904Y-84522380D01*
X107495714Y-84522380D02*
X106924285Y-84522380D01*
X107210000Y-84522380D02*
X107210000Y-83522380D01*
X107114761Y-83665238D01*
X107019523Y-83760476D01*
X106924285Y-83808095D01*
X103931904Y-78166666D02*
X104408095Y-78166666D01*
X103836666Y-78452380D02*
X104170000Y-77452380D01*
X104503333Y-78452380D01*
%TO.C,6V1*%
X131285714Y-74682380D02*
X131095238Y-74682380D01*
X131000000Y-74730000D01*
X130952380Y-74777619D01*
X130857142Y-74920476D01*
X130809523Y-75110952D01*
X130809523Y-75491904D01*
X130857142Y-75587142D01*
X130904761Y-75634761D01*
X131000000Y-75682380D01*
X131190476Y-75682380D01*
X131285714Y-75634761D01*
X131333333Y-75587142D01*
X131380952Y-75491904D01*
X131380952Y-75253809D01*
X131333333Y-75158571D01*
X131285714Y-75110952D01*
X131190476Y-75063333D01*
X131000000Y-75063333D01*
X130904761Y-75110952D01*
X130857142Y-75158571D01*
X130809523Y-75253809D01*
X131666666Y-74682380D02*
X132000000Y-75682380D01*
X132333333Y-74682380D01*
X133190476Y-75682380D02*
X132619047Y-75682380D01*
X132904761Y-75682380D02*
X132904761Y-74682380D01*
X132809523Y-74825238D01*
X132714285Y-74920476D01*
X132619047Y-74968095D01*
%TD*%
M02*
