M48
; DRILL file {KiCad (5.1.12)-1} date 08/14/23 15:24:25
; FORMAT={-:-/ absolute / inch / decimal}
; #@! TF.CreationDate,2023-08-14T15:24:25+05:30
; #@! TF.GenerationSoftware,Kicad,Pcbnew,(5.1.12)-1
; #@! TF.FileFunction,Plated,1,2,PTH
FMAT,2
INCH
T1C0.0276
T2C0.0315
T3C0.0354
T4C0.0394
T5C0.0512
T6C0.1339
%
G90
G05
T1
X4.1957Y-2.9636
X4.3957Y-2.9636
X5.0Y-2.9528
X5.0Y-3.1528
T2
X4.5276Y-2.9283
X4.5276Y-3.2283
X4.6276Y-2.9283
X4.6276Y-3.2283
X4.7276Y-2.9283
X4.7276Y-3.2283
X4.8276Y-2.9283
X4.8276Y-3.2283
T3
X4.9606Y-3.3071
X5.0606Y-3.3071
T4
X4.7175Y-3.4449
X4.7175Y-3.5433
X4.7175Y-3.6417
X5.1969Y-3.0709
X5.1969Y-3.1709
T5
X4.1012Y-3.1614
X4.3012Y-3.1614
T6
X3.9764Y-2.874
X3.9764Y-3.7008
X5.1969Y-2.874
X5.1969Y-3.7008
T0
M30
