M48
; DRILL file {KiCad (5.1.12)-1} date 08/23/23 15:32:29
; FORMAT={-:-/ absolute / inch / decimal}
; #@! TF.CreationDate,2023-08-23T15:32:29+05:30
; #@! TF.GenerationSoftware,Kicad,Pcbnew,(5.1.12)-1
; #@! TF.FileFunction,Plated,1,2,PTH
FMAT,2
INCH
T1C0.0236
T2C0.0276
T3C0.0295
T4C0.0354
T5C0.0394
T6C0.1339
%
G90
G05
T1
X5.2878Y-2.4055
X5.2878Y-2.4843
X5.5087Y-2.4366
X5.5874Y-2.4366
T2
X5.1087Y-2.1102
X5.1087Y-2.3102
X5.548Y-2.0772
X5.548Y-2.2772
X5.6811Y-2.0862
X5.6811Y-2.2862
X5.835Y-2.0846
X5.835Y-2.2846
T3
X5.2772Y-2.1559
X5.2772Y-2.2059
X5.2772Y-2.2559
X5.7378Y-2.4067
X5.7378Y-2.4567
X5.7378Y-2.5067
T4
X4.9394Y-1.9291
X5.0394Y-1.9291
X5.1756Y-1.9291
X5.2756Y-1.9291
X5.4118Y-1.9291
X5.5118Y-1.9291
X5.6437Y-1.9413
X5.7437Y-1.9413
X5.8685Y-1.939
X5.9685Y-1.939
X6.0909Y-1.939
X6.1909Y-1.939
T5
X4.9673Y-2.1496
X4.9673Y-2.2496
T6
X4.8258Y-1.7717
X4.8533Y-2.5561
X6.314Y-2.5591
X6.3337Y-1.7795
T0
M30
